{"title":"Daddys.Home.2015.BRRip.480p.x264.AAC-VYTO [P2PDL]","uid":13880490,"size":376019749,"categoryP":"video","categoryS":"movies","magnet":"?xt=urn:btih:0b27f26453866e5b5a23221f5ce7fd8a9a77868f&amp;dn=Daddys.Home.2015.BRRip.480p.x264.AAC-VYTO+%5BP2PDL%5D&amp;tr=udp%3A%2F%2Ftracker.leechers-paradise.org%3A6969&amp;tr=udp%3A%2F%2Fzer0day.ch%3A1337&amp;tr=udp%3A%2F%2Fopen.demonii.com%3A1337&amp;tr=udp%3A%2F%2Ftracker.coppersurfer.tk%3A6969&amp;tr=udp%3A%2F%2Fexodus.desync.com%3A6969","seeders":2,"leechers":2,"uploader":"VYTOP2PDL","files":7,"time":1458152584,"description":"____    ____ ____    ____ .___________.  ______   \r\n     /   /      /   / |           | /  __    \r\n    /   /      /   /  `---|  |----`|  |  |  | \r\n        /     _    _/       |  |     |  |  |  | \r\n       /        |  |         |  |     |  `--'  | \r\n    __/         |__|         |__|      ______/  \r\n                                                  \r\nPresenting Small Encodes with quality for years!\r\n                                                                                                   \r\n                                                                                                   \r\n\r\n\r\nDaddys.Home.2015.BRRip.480p.x264.AAC-VYTO\r\n\r\n\r\nGenre: Comedy   \nhttp://www.imdb.com/title/tt1528854/\r\n\r\n\r\nFormat                                   : MPEG-4\r\nFile size                                : 352 MiB\r\nDuration                                 : 1h 36mn\r\nOverall bit rate                         : 512 Kbps\r\n\r\nVideo\r\nFormat                                   : AVC\r\nBit rate                                 : 477 Kbps\r\nWidth                                    : 720 pixels\r\nHeight                                   : 400 pixels\r\nDisplay aspect ratio                     : 16:9\r\nFrame rate mode                          : Constant\r\nFrame rate                               : 23.976 fps\r\nBit depth                                : 8 bits\r\nStream size                              : 328 MiB (93%)\r\nWriting library                          : x264 core\r\n\r\nAudio\r\nFormat                                   : AAC\r\nBit rate mode                            : Variable\r\nBit rate                                 : 31.9 Kbps\r\nChannel(s)                               : 2 channels\r\nChannel positions                        : Front: L R \r\nSampling rate                            : 48.0 KHz\r\nStream size                              : 21.9 MiB (6%)\r\nLanguage                                 : English\r\n\r\nSubtitle                                 : Yes (English)\r\n\r\nScreen Shot: (Click to view)\r\n \nhttp://ititli.com/XjX \nhttp://ititli.com/Xjq \nhttp://ititli.com/Xjr \nhttp://ititli.com/Xj1 \nhttp://ititli.com/XjT \nhttp://ititli.com/XjW \nhttp://ititli.com/Xjg \nhttp://ititli.com/Xjn \nhttp://ititli.com/Xjw \nhttp://ititli.com/Xj2 \nhttp://ititli.com/Xj6 \nhttp://ititli.com/Xj8\r\n\r\n----------------------------------------------------------------------------------------------------\r\n\r\n\r\nEncoder Notes: Looking For Early Access To Anything You Can Provide WEBDL, DVDScr, DVDR, BluRay,\r\nDirect Audio, Music Releases and Seedboxes. If You Got anything to offer please contact us.\r\n\r\nSupport us by donating BC - 1FgwdzPsd1y25Gea8wP1qni35uGCtmkRCD\r\n\r\nFind us and join us!","torrent":{"xt":"urn:btih:0b27f26453866e5b5a23221f5ce7fd8a9a77868f","amp;dn":"Daddys.Home.2015.BRRip.480p.x264.AAC-VYTO+%5BP2PDL%5D","amp;tr":["udp%3A%2F%2Ftracker.leechers-paradise.org%3A6969","udp%3A%2F%2Fzer0day.ch%3A1337","udp%3A%2F%2Fopen.demonii.com%3A1337","udp%3A%2F%2Ftracker.coppersurfer.tk%3A6969","udp%3A%2F%2Fexodus.desync.com%3A6969"],"infoHash":"0b27f26453866e5b5a23221f5ce7fd8a9a77868f","infoHashBuffer":{"type":"Buffer","data":[11,39,242,100,83,134,110,91,90,35,34,31,92,231,253,138,154,119,134,143]},"announce":[],"urlList":[]}}